<svg width="320" height="65" xmlns="http://www.w3.org/2000/svg">
 <metadata id="metadata8">image/svg+xml</metadata>
 <defs>
  <clipPath clipPathUnits="userSpaceOnUse" id="clipPath36">
   <path d="m993.76996,7058.59013c-20.47,-69.48 -90.57,-62.69 -90.57,-62.69c0,0 32.44,-236.86 292.62,-236.86c259.8,0 292.57,236.86 292.57,236.86c0,0 -74.2,-5.24 -90.57,62.69l-404.05,0z" id="path34"/>
  </clipPath>
 </defs>
 <g>
  <title>background</title>
  <rect fill="none" id="canvas_background" height="67" width="322" y="-1" x="-1"/>
 </g>
 <g>
  <title>Layer 1</title>
  <g id="g10" transform="matrix(1.33333, 0, 0, -1.33333, 0, 851.907)">
   <g id="g12" transform="translate(-0.75) scale(0.1)">
    <path fill="#706d6e" fill-rule="nonzero" d="m83.49996,6573.84013c0,-9.78 -7.94,-17.71 -17.71,-17.71c-9.79,0 -17.72,7.93 -17.72,17.71c0,9.78 7.93,17.71 17.72,17.71c9.77,0 17.71,-7.93 17.71,-17.71" id="path14"/>
    <path fill="#706d6e" fill-rule="nonzero" d="m2351.21996,6573.84013c0,-9.78 -7.95,-17.71 -17.71,-17.71c-9.81,0 -17.72,7.93 -17.72,17.71c0,9.79 7.91,17.72 17.72,17.72c9.76,0 17.71,-7.93 17.71,-17.72" id="path16"/>
    <path fill="#3877c5" fill-rule="nonzero" d="m1039.69996,7196.01013c0,-12.72 -10.05,-23.04 -22.43,-23.04c-12.39,0 -22.44,10.32 -22.44,23.04c0,12.73 10.05,23.05 22.44,23.05c12.38,0 22.43,-10.32 22.43,-23.05" id="path18"/>
    <path fill="#3877c5" fill-rule="nonzero" d="m1396.74996,7195.89013c0,-12.72 -10.06,-23.04 -22.44,-23.04c-12.41,0 -22.44,10.32 -22.44,23.04c0,12.73 10.03,23.04 22.44,23.04c12.38,0 22.44,-10.31 22.44,-23.04" id="path20"/>
    <path fill="#3877c5" fill-rule="nonzero" d="m1301.56996,7230.95013c0,-12.72 -10.04,-23.04 -22.44,-23.04c-12.38,0 -22.42,10.32 -22.42,23.04c0,12.72 10.04,23.04 22.42,23.04c12.4,0 22.44,-10.32 22.44,-23.04" id="path22"/>
    <path fill="#3877c5" fill-rule="nonzero" d="m1133.30996,7229.94013c0,-12.72 -10.05,-23.03 -22.44,-23.03c-12.39,0 -22.44,10.31 -22.44,23.03c0,12.73 10.05,23.05 22.44,23.05c12.39,0 22.44,-10.32 22.44,-23.05" id="path24"/>
    <path fill="#3877c5" fill-rule="nonzero" d="m1219.43996,7239.96013c0,-12.72 -10.04,-23.04 -22.43,-23.04c-12.39,0 -22.43,10.32 -22.43,23.04c0,12.73 10.04,23.04 22.43,23.04c12.39,0 22.43,-10.31 22.43,-23.04" id="path26"/>
    <path fill="#3877c5" fill-rule="nonzero" d="m1328.32996,7061.79013l34.51,113.19l-60.1,-41.07l-28.04,74.13l-37.07,-68.13l-41.06,76.14l-36.06,-76.14l-45.08,67.12l-19.03,-73.12l-65.11,42.07l45.77,-114.19l251.27,0" id="path28"/>
    <g id="g30">
     <g id="g32" clip-path="url(#clipPath36)">
      <path fill="#3877c5" fill-rule="nonzero" d="m1078.55996,6915.23013l-84.42,17.02l-44.75,77.73l84.45,-17.02l44.72,-77.73" id="path38"/>
      <path fill="#3877c5" fill-rule="nonzero" d="m1118.09996,6975.80013l-84.45,17.02l-44.74,77.71l84.45,-17.01l44.74,-77.72" id="path40"/>
      <path fill="#3877c5" fill-rule="nonzero" d="m1038.95996,6854.69013l-84.43,17.02l-44.74,77.73l84.45,-17.02l44.72,-77.73" id="path42"/>
      <path fill="#3877c5" fill-rule="nonzero" d="m1158.32996,7036.68013l-84.41,17.01l-44.77,77.73l84.46,-16.99l44.72,-77.75" id="path44"/>
      <path fill="#3877c5" fill-rule="nonzero" d="m1207.75996,6820.60013l-84.42,16.98l-44.75,77.75l84.45,-17.01l44.72,-77.72" id="path46"/>
      <path fill="#3877c5" fill-rule="nonzero" d="m1247.28996,6881.15013l-84.43,17.01l-44.76,77.73l84.45,-17.01l44.74,-77.73" id="path48"/>
      <path fill="#3877c5" fill-rule="nonzero" d="m1168.18996,6760.05013l-84.45,17l-44.76,77.74l84.45,-17l44.76,-77.74" id="path50"/>
      <path fill="#3877c5" fill-rule="nonzero" d="m1287.50996,6942.03013l-84.39,17.01l-44.75,77.75l84.41,-17.02l44.73,-77.74" id="path52"/>
      <path fill="#3877c5" fill-rule="nonzero" d="m1327.05996,7002.59013l-84.45,17l-44.74,77.76l84.44,-17.02l44.75,-77.74" id="path54"/>
      <path fill="#3877c5" fill-rule="nonzero" d="m1376.78996,6786.72013l-84.42,17.02l-44.74,77.75l84.43,-17.02l44.73,-77.75" id="path56"/>
      <path fill="#3877c5" fill-rule="nonzero" d="m1416.33996,6847.28013l-84.46,17.01l-44.74,77.73l84.43,-16.99l44.77,-77.75" id="path58"/>
      <path fill="#3877c5" fill-rule="nonzero" d="m1297.68996,6665.64013l-84.42,17.01l-44.73,77.73l84.42,-17.02l44.73,-77.72" id="path60"/>
      <path fill="#3877c5" fill-rule="nonzero" d="m1337.19996,6726.20013l-84.46,17l-44.7,77.74l84.43,-17.01l44.73,-77.73" id="path62"/>
      <path fill="#3877c5" fill-rule="nonzero" d="m1456.56996,6908.19013l-84.43,17l-44.75,77.71l84.44,-16.97l44.74,-77.74" id="path64"/>
      <path fill="#3877c5" fill-rule="nonzero" d="m1496.07996,6968.73013l-84.43,17.01l-44.75,77.73l84.44,-17l44.74,-77.74" id="path66"/>
     </g>
    </g>
    <path fill="none" stroke="#3877c5" stroke-width="10" stroke-miterlimit="4" d="m993.76996,7058.59013c-20.47,-69.48 -90.57,-62.69 -90.57,-62.69c0,0 32.44,-236.86 292.62,-236.86c259.8,0 292.57,236.86 292.57,236.86c0,0 -74.2,-5.24 -90.57,62.69l-404.05,0z" id="path68"/>
    <path fill="#3877c5" fill-rule="nonzero" d="m262.07996,6075.92013l0,82.33l-53.94,20.45l0,-80.76l53.94,-22.02zm-10.47,183.02l-29.36,21.49l-14.11,-19.39l0,-58.73l43.47,56.63zm39.58,-20.46l33.76,-22.02l0,-157.84l-74.89,-66.61l-143.2,50.86l33.37,39.34l0,208.19l-51.22,16.78l45.79,69.76l59.77,-25.18l4.65,-29.89l34.54,50.87l103.61,-60.32l-46.18,-73.94" id="path70"/>
    <path fill="#3877c5" fill-rule="nonzero" d="m441.75996,6072.25013l0,109.08l-21.34,9.96l0,-111.7l21.34,-7.34zm81.88,-10.49l-38.81,-74.99l-33.37,36.71l-21.34,-31.99l-71.41,25.17l0.78,187.21l59.76,69.75l84.6,-25.7l1.55,-165.18l18.24,-20.98" id="path72"/>
    <path fill="#3877c5" fill-rule="nonzero" d="m585.33996,6264.71013l29.1,-26.75l-1.16,-157.84l23.67,-21.5l-37.26,-70.28l-41.13,33.56l-0.39,166.25l-19.79,16.77l40.36,63.46l-34.54,41.95l38.03,52.45l41.13,-51.93l-38.02,-46.14" id="path74"/>
    <path fill="#3877c5" fill-rule="nonzero" d="m792.55996,6225.38013l-39.5,-66.98l-13.67,12.9l0,-90.16l53.17,-17.93l-47.74,-70.15l-65.58,19.4l0,164.67l-32.59,17.31l39.19,80.76l38.81,-31.99l15.13,31.99l52.78,-49.82" id="path76"/>
    <path fill="#3877c5" fill-rule="nonzero" d="m851.92996,6264.71013l29.11,-26.75l-1.17,-157.84l23.67,-21.5l-37.25,-70.28l-41.13,33.56l-0.39,166.25l-19.79,16.77l40.36,63.46l-34.54,41.95l38.03,52.45l41.13,-51.93l-38.03,-46.14" id="path78"/>
    <path fill="#3877c5" fill-rule="nonzero" d="m1025.39996,6266.27013l-37.26,25.71l1.16,-344.54l-49.67,-39.86l0.39,340.34l-14.75,8.92l15.91,31.99l0.78,28.84l33.37,60.3l71.41,-40.37l-21.34,-71.33" id="path80"/>
    <path fill="#3877c5" fill-rule="nonzero" d="m1127.06996,6169.26013l-33.76,14.16l-1.17,-100.68l59.76,-22.03l-51.61,-69.75l-64.03,27.79l0,203.48l50.44,52.44l64.04,-40.9l-23.67,-64.51" id="path82"/>
    <path fill="#3877c5" fill-rule="nonzero" d="m1258.99996,5915.45013l-1.14,274.79l-19.05,16.26l-1.15,-200.85l-60.92,-5.76l1.55,339.28l59.37,46.15l0,-121.66l20.09,28.84l61.8,-40.38l1.54,-301.53l-62.09,-35.14" id="path84"/>
    <path fill="#3877c5" fill-rule="nonzero" d="m1414.99996,6138.85013l19.02,34.61l-20.56,19.92l1.54,-54.53zm83.05,-83.91l-45.02,-62.93l-91.58,20.98l-0.39,205.57l62.09,57.17l72.18,-66.61l-71.79,-132.67l74.51,-21.51" id="path86"/>
    <path fill="#3877c5" fill-rule="nonzero" d="m1658.70996,6225.38013l-39.5,-66.98l-13.66,12.9l0,-90.16l53.16,-17.93l-47.73,-70.15l-65.59,19.4l0,164.67l-32.6,17.31l39.2,80.76l38.81,-31.99l15.13,31.99l52.78,-49.82" id="path88"/>
    <path fill="#3877c5" fill-rule="nonzero" d="m1915.63996,6279.39013l-70.46,14.16l0,-67.65l22.91,34.08l84.2,-34.08l1.17,-261.15l-65.59,-60.84l-1.95,258.01l-22.72,10.49l-18.02,-25.7l0,-146.31l-62.86,0l-4.27,305.21l57.05,76.03l134.26,-39.32l-53.72,-62.93" id="path90"/>
    <path fill="#3877c5" fill-rule="nonzero" d="m2076.06996,6082.21013l0,92.3l-16.03,17.31l-2.97,-91.25l19,-18.36zm-3.49,-90.72l-79.94,34.08l-0.76,172.54l57.81,75.51l86.93,-45.63l3.87,-173.05l-67.91,-63.45" id="path92"/>
    <path fill="#3877c5" fill-rule="nonzero" d="m2249.15996,6271.00013l12.03,0.53l-12.81,32.51l0.78,-33.04zm17.07,0l31.04,-1.06l-35.69,-82.85l-12.03,0.53l-1.56,-237.56l-59.38,-43.01l-0.78,282.66l-32.6,-2.62l23.31,82.85l9.68,1.59l3.5,41.42l45.8,63.46l57.81,-34.61l-29.1,-70.8" id="path94"/>
    <path fill="#706d6e" fill-rule="nonzero" d="m1483.10996,6580.93013l-566.93,0l-822.03,-7.08l822.03,-7.09l566.93,0l822.05,7.09l-822.05,7.08" id="path96"/>
    <path fill="#706d6e" fill-rule="nonzero" d="m763.08996,6671.12013l0,-28.18l32.58,0l0,28.18l8.8,0l0,-67.36l-8.8,0l0,31.58l-32.58,0l0,-31.58l-8.79,0l0,67.36l8.79,0" id="path98"/>
    <path fill="#706d6e" fill-rule="nonzero" d="m826.59996,6637.14013c0,-14.49 7.79,-27.39 21.58,-27.39c13.8,0 21.59,12.7 21.59,27.99c0,13.49 -6.99,27.48 -21.48,27.48c-14.5,0 -21.69,-13.39 -21.69,-28.08zm52.37,1c0,-23.09 -14.09,-35.48 -31.28,-35.48c-17.9,0 -30.29,13.89 -30.29,34.28c0,21.39 13.2,35.38 31.18,35.38c18.5,0 30.39,-14.09 30.39,-34.18" id="path100"/>
    <path fill="#706d6e" fill-rule="nonzero" d="m902.28996,6663.72013l-20.48,0l0,7.4l49.86,0l0,-7.4l-20.58,0l0,-59.96l-8.8,0l0,59.96" id="path102"/>
    <path fill="#706d6e" fill-rule="nonzero" d="m976.47996,6635.34013l-26.09,0l0,-24.29l29.19,0l0,-7.29l-37.98,0l0,67.36l36.48,0l0,-7.29l-27.69,0l0,-21.29l26.09,0l0,-7.2" id="path104"/>
    <path fill="#706d6e" fill-rule="nonzero" d="m993.29996,6671.12013l8.79,0l0,-60.07l28.78,0l0,-7.29l-37.57,0l0,67.36" id="path106"/>
    <path fill="#706d6e" fill-rule="nonzero" d="m1063.59996,6629.94013c0,3.7 2.49,6.3 5.99,6.3c3.5,0 5.9,-2.6 5.9,-6.3c0,-3.5 -2.4,-6.19 -6.1,-6.19c-3.39,0 -5.79,2.69 -5.79,6.19" id="path108"/>
    <path fill="#706d6e" fill-rule="nonzero" d="m1160.66996,6605.86013c-3.1,-1.6 -9.6,-3.2 -17.79,-3.2c-18.99,0 -33.18,11.99 -33.18,34.18c0,21.19 14.29,35.38 35.18,35.38c8.29,0 13.69,-1.8 15.99,-3l-2.2,-7.09c-3.2,1.59 -7.89,2.79 -13.49,2.79c-15.8,0 -26.29,-10.09 -26.29,-27.78c0,-16.59 9.5,-27.08 25.79,-27.08c5.39,0 10.79,1.1 14.29,2.79l1.7,-6.99" id="path110"/>
    <path fill="#706d6e" fill-rule="nonzero" d="m1177.28996,6637.14013c0,-14.49 7.8,-27.39 21.59,-27.39c13.8,0 21.59,12.7 21.59,27.99c0,13.49 -6.99,27.48 -21.49,27.48c-14.49,0 -21.69,-13.39 -21.69,-28.08zm52.38,1c0,-23.09 -14.1,-35.48 -31.29,-35.48c-17.89,0 -30.28,13.89 -30.28,34.28c0,21.39 13.19,35.38 31.18,35.38c18.49,0 30.39,-14.09 30.39,-34.18" id="path112"/>
    <path fill="#706d6e" fill-rule="nonzero" d="m1243.49996,6603.76013l0,67.36l9.59,0l21.48,-34.08c4.9,-7.9 8.91,-14.99 12,-21.89l0.31,0.1c-0.81,9 -1.01,17.19 -1.01,27.69l0,28.18l8.19,0l0,-67.36l-8.79,0l-21.38,34.18c-4.71,7.49 -9.2,15.19 -12.5,22.49l-0.3,-0.1c0.5,-8.5 0.6,-16.6 0.6,-27.79l0,-28.78l-8.19,0" id="path114"/>
    <path fill="#706d6e" fill-rule="nonzero" d="m1320.48996,6610.55013c2.21,-0.3 5.4,-0.4 8.8,-0.4c18.68,0 28.68,10.4 28.68,28.59c0.1,15.89 -8.89,25.98 -27.29,25.98c-4.49,0 -7.89,-0.4 -10.19,-0.89l0,-53.28zm-8.69,59.57c5.29,0.9 11.59,1.5 18.49,1.5c12.48,0 21.39,-3 27.29,-8.39c6.09,-5.5 9.59,-13.3 9.59,-24.19c0,-11 -3.5,-19.99 -9.71,-26.19c-6.39,-6.29 -16.78,-9.69 -29.87,-9.69c-6.3,0 -11.4,0.3 -15.79,0.8l0,66.16" id="path116"/>
    <path fill="#706d6e" fill-rule="nonzero" d="m1389.58996,6671.12013l0,-67.36l-8.79,0l0,67.36l8.79,0" id="path118"/>
    <path fill="#706d6e" fill-rule="nonzero" d="m1420.07996,6663.72013l-20.49,0l0,7.4l49.88,0l0,-7.4l-20.6,0l0,-59.96l-8.79,0l0,59.96" id="path120"/>
    <path fill="#706d6e" fill-rule="nonzero" d="m1461.98996,6637.14013c0,-14.49 7.8,-27.39 21.58,-27.39c13.79,0 21.59,12.7 21.59,27.99c0,13.49 -7,27.48 -21.49,27.48c-14.49,0 -21.68,-13.39 -21.68,-28.08zm52.37,1c0,-23.09 -14.09,-35.48 -31.29,-35.48c-17.89,0 -30.28,13.89 -30.28,34.28c0,21.39 13.19,35.38 31.19,35.38c18.48,0 30.38,-14.09 30.38,-34.18" id="path122"/>
    <path fill="#706d6e" fill-rule="nonzero" d="m1536.87996,6639.54013l8.9,0c9.3,0 15.2,5.1 15.2,12.79c0,8.7 -6.31,12.49 -15.51,12.49c-4.18,0 -7.09,-0.3 -8.59,-0.7l0,-24.58zm-8.7,30.68c4.4,0.8 10.8,1.4 16.7,1.4c9.3,0 15.39,-1.8 19.5,-5.49c3.28,-3.01 5.29,-7.6 5.29,-12.9c0,-8.79 -5.61,-14.69 -12.6,-17.09l0,-0.3c5.1,-1.8 8.2,-6.59 9.81,-13.59c2.18,-9.4 3.78,-15.89 5.19,-18.49l-9,0c-1.1,1.99 -2.6,7.69 -4.4,16.09c-1.99,9.29 -5.7,12.79 -13.59,13.09l-8.2,0l0,-29.18l-8.7,0l0,66.46" id="path124"/>
    <path fill="#706d6e" fill-rule="nonzero" d="m1619.25996,6635.34013l-26.08,0l0,-24.29l29.18,0l0,-7.29l-37.97,0l0,67.36l36.47,0l0,-7.29l-27.68,0l0,-21.29l26.08,0l0,-7.2" id="path126"/>
    <path fill="#706d6e" fill-rule="nonzero" d="m1644.87996,6671.12013l0,-67.36l-8.79,0l0,67.36l8.79,0" id="path128"/>
    <path fill="#706d6e" fill-rule="nonzero" d="m622.11996,6465.86013c-3.1,-1.6 -9.59,-3.2 -17.79,-3.2c-18.99,0 -33.18,11.99 -33.18,34.18c0,21.19 14.29,35.38 35.18,35.38c8.3,0 13.69,-1.8 15.99,-3l-2.19,-7.09c-3.2,1.59 -7.9,2.79 -13.5,2.79c-15.79,0 -26.28,-10.09 -26.28,-27.78c0,-16.59 9.49,-27.08 25.78,-27.08c5.4,0 10.8,1.1 14.29,2.79l1.7,-6.99" id="path130"/>
    <path fill="#706d6e" fill-rule="nonzero" d="m669.12996,6491.74013l-6.7,19.4c-1.5,4.39 -2.49,8.39 -3.49,12.29l-0.2,0c-1.01,-3.9 -2,-8.1 -3.4,-12.2l-6.6,-19.49l20.39,0zm-22.19,-6.8l-6.99,-21.19l-9,0l22.99,67.37l10.39,0l22.99,-67.37l-9.3,0l-7.19,21.19l-23.89,0" id="path132"/>
    <path fill="#706d6e" fill-rule="nonzero" d="m699.64996,6531.12013l36.28,0l0,-7.29l-27.49,0l0,-22.39l25.39,0l0,-7.2l-25.39,0l0,-30.49l-8.79,0l0,67.37" id="path134"/>
    <path fill="#706d6e" fill-rule="nonzero" d="m784.12996,6546.41013l-12.79,-11.69l-7.1,0l9.3,11.69l10.59,0zm1.6,-51.08l-26.09,0l0,-24.27l29.19,0l0,-7.31l-37.98,0l0,67.37l36.48,0l0,-7.29l-27.69,0l0,-21.29l26.09,0l0,-7.21" id="path136"/>
    <path fill="#706d6e" fill-rule="nonzero" d="m835.03996,6499.53013l8.9,0c9.3,0 15.19,5.1 15.19,12.8c0,8.7 -6.29,12.49 -15.49,12.49c-4.2,0 -7.1,-0.3 -8.6,-0.7l0,-24.59zm-8.69,30.69c4.4,0.8 10.79,1.4 16.69,1.4c9.3,0 15.39,-1.8 19.49,-5.49c3.3,-3.01 5.3,-7.6 5.3,-12.9c0,-8.79 -5.6,-14.69 -12.6,-17.09l0,-0.3c5.1,-1.79 8.2,-6.6 9.8,-13.59c2.2,-9.4 3.8,-15.9 5.19,-18.5l-8.99,0c-1.1,2 -2.6,7.7 -4.39,16.1c-2.01,9.29 -5.7,12.79 -13.6,13.09l-8.2,0l0,-29.19l-8.69,0l0,66.47" id="path138"/>
    <path fill="#706d6e" fill-rule="nonzero" d="m891.33996,6531.12013l0,-67.37l-8.79,0l0,67.37l8.79,0" id="path140"/>
    <path fill="#706d6e" fill-rule="nonzero" d="m943.82996,6495.33013l-26.09,0l0,-24.27l29.19,0l0,-7.31l-37.98,0l0,67.37l36.48,0l0,-7.29l-27.69,0l0,-21.29l26.09,0l0,-7.21" id="path142"/>
    <path fill="#706d6e" fill-rule="nonzero" d="m969.43996,6470.55013c2.21,-0.29 5.4,-0.39 8.8,-0.39c18.69,0 28.68,10.39 28.68,28.57c0.11,15.9 -8.89,25.99 -27.28,25.99c-4.5,0 -7.9,-0.4 -10.2,-0.89l0,-53.28zm-8.69,59.57c5.29,0.9 11.59,1.5 18.49,1.5c12.49,0 21.39,-3 27.28,-8.39c6.1,-5.5 9.6,-13.3 9.6,-24.19c0,-10.99 -3.5,-19.99 -9.69,-26.19c-6.4,-6.29 -16.8,-9.69 -29.89,-9.69c-6.3,0 -11.39,0.3 -15.79,0.8l0,66.16" id="path144"/>
    <path fill="#706d6e" fill-rule="nonzero" d="m1064.62996,6495.33013l-26.09,0l0,-24.27l29.18,0l0,-7.31l-37.97,0l0,67.37l36.48,0l0,-7.29l-27.69,0l0,-21.29l26.09,0l0,-7.21" id="path146"/>
    <path fill="#706d6e" fill-rule="nonzero" d="m1081.44996,6531.12013l8.79,0l0,-60.06l28.78,0l0,-7.31l-37.57,0l0,67.37" id="path148"/>
    <path fill="#706d6e" fill-rule="nonzero" d="m1128.04996,6489.94013c0,3.7 2.49,6.29 5.99,6.29c3.5,0 5.9,-2.59 5.9,-6.29c0,-3.49 -2.4,-6.19 -6.1,-6.19c-3.4,0 -5.79,2.7 -5.79,6.19" id="path150"/>
    <path fill="#706d6e" fill-rule="nonzero" d="m1186.83996,6499.53013l8.89,0c9.3,0 15.19,5.1 15.19,12.8c0,8.7 -6.29,12.49 -15.49,12.49c-4.19,0 -7.1,-0.3 -8.59,-0.7l0,-24.59zm-8.7,30.69c4.4,0.8 10.8,1.4 16.69,1.4c9.3,0 15.39,-1.8 19.49,-5.49c3.3,-3.01 5.3,-7.6 5.3,-12.9c0,-8.79 -5.6,-14.69 -12.59,-17.09l0,-0.3c5.1,-1.79 8.19,-6.6 9.79,-13.59c2.2,-9.4 3.81,-15.9 5.19,-18.5l-8.98,0c-1.11,2 -2.6,7.7 -4.4,16.1c-2.01,9.29 -5.7,12.79 -13.6,13.09l-8.19,0l0,-29.19l-8.7,0l0,66.47" id="path152"/>
    <path fill="#706d6e" fill-rule="nonzero" d="m1269.21996,6495.33013l-26.09,0l0,-24.27l29.19,0l0,-7.31l-37.98,0l0,67.37l36.48,0l0,-7.29l-27.69,0l0,-21.29l26.09,0l0,-7.21" id="path154"/>
    <path fill="#706d6e" fill-rule="nonzero" d="m1285.03996,6474.36013c3.91,-2.5 9.49,-4.41 15.49,-4.41c8.9,0 14.1,4.7 14.1,11.5c0,6.19 -3.6,9.89 -12.7,13.29c-10.99,3.99 -17.79,9.79 -17.79,19.19c0,10.5 8.69,18.29 21.79,18.29c6.79,0 11.89,-1.6 14.79,-3.3l-2.4,-7.1c-2.09,1.3 -6.59,3.2 -12.69,3.2c-9.19,0 -12.7,-5.49 -12.7,-10.09c0,-6.29 4.1,-9.4 13.4,-12.99c11.39,-4.4 17.09,-9.9 17.09,-19.79c0,-10.4 -7.6,-19.49 -23.49,-19.49c-6.49,0 -13.58,1.99 -17.19,4.39l2.3,7.31" id="path156"/>
    <path fill="#706d6e" fill-rule="nonzero" d="m1350.73996,6523.72013l-20.49,0l0,7.4l49.87,0l0,-7.4l-20.59,0l0,-59.97l-8.79,0l0,59.97" id="path158"/>
    <path fill="#706d6e" fill-rule="nonzero" d="m1415.71996,6491.74013l-6.7,19.4c-1.5,4.39 -2.5,8.39 -3.49,12.29l-0.2,0c-0.99,-3.9 -2.01,-8.1 -3.4,-12.2l-6.6,-19.49l20.39,0zm-22.18,-6.8l-7,-21.19l-9,0l22.99,67.37l10.39,0l22.99,-67.37l-9.3,0l-7.19,21.19l-23.88,0" id="path160"/>
    <path fill="#706d6e" fill-rule="nonzero" d="m1452.22996,6531.12013l0,-39.98c0,-14.98 6.7,-21.39 15.7,-21.39c9.88,0 16.39,6.6 16.39,21.39l0,39.98l8.79,0l0,-39.38c0,-20.68 -10.88,-29.08 -25.49,-29.08c-13.79,0 -24.18,7.79 -24.18,28.79l0,39.67l8.79,0" id="path162"/>
    <path fill="#706d6e" fill-rule="nonzero" d="m1519.42996,6499.53013l8.89,0c9.3,0 15.2,5.1 15.2,12.8c0,8.7 -6.29,12.49 -15.49,12.49c-4.2,0 -7.09,-0.3 -8.6,-0.7l0,-24.59zm-8.69,30.69c4.4,0.8 10.78,1.4 16.68,1.4c9.3,0 15.39,-1.8 19.49,-5.49c3.3,-3.01 5.3,-7.6 5.3,-12.9c0,-8.79 -5.59,-14.69 -12.58,-17.09l0,-0.3c5.08,-1.79 8.18,-6.6 9.78,-13.59c2.21,-9.4 3.79,-15.9 5.2,-18.5l-8.98,0c-1.12,2 -2.6,7.7 -4.42,16.1c-1.99,9.29 -5.68,12.79 -13.59,13.09l-8.19,0l0,-29.19l-8.69,0l0,66.47" id="path164"/>
    <path fill="#706d6e" fill-rule="nonzero" d="m1600.60996,6491.74013l-6.68,19.4c-1.51,4.39 -2.5,8.39 -3.52,12.29l-0.2,0c-0.99,-3.9 -1.99,-8.1 -3.39,-12.2l-6.59,-19.49l20.38,0zm-22.19,-6.8l-6.99,-21.19l-8.99,0l22.99,67.37l10.39,0l22.99,-67.37l-9.3,0l-7.21,21.19l-23.88,0" id="path166"/>
    <path fill="#706d6e" fill-rule="nonzero" d="m1636.32996,6523.72013l-20.49,0l0,7.4l49.88,0l0,-7.4l-20.6,0l0,-59.97l-8.79,0l0,59.97" id="path168"/>
    <path fill="#706d6e" fill-rule="nonzero" d="m1684.42996,6531.12013l0,-67.37l-8.79,0l0,67.37l8.79,0" id="path170"/>
    <path fill="#706d6e" fill-rule="nonzero" d="m1707.31996,6497.14013c0,-14.49 7.8,-27.39 21.61,-27.39c13.78,0 21.58,12.69 21.58,27.99c0,13.49 -6.99,27.48 -21.49,27.48c-14.49,0 -21.7,-13.39 -21.7,-28.08zm52.39,1c0,-23.09 -14.1,-35.48 -31.29,-35.48c-17.89,0 -30.29,13.89 -30.29,34.28c0,21.39 13.2,35.38 31.19,35.38c18.49,0 30.39,-14.09 30.39,-34.18" id="path172"/>
    <path fill="#706d6e" fill-rule="nonzero" d="m1773.53996,6463.75013l0,67.37l9.59,0l21.48,-34.09c4.9,-7.89 8.91,-14.98 11.99,-21.88l0.31,0.11c-0.8,8.98 -1.01,17.18 -1.01,27.67l0,28.19l8.2,0l0,-67.37l-8.79,0l-21.38,34.18c-4.71,7.5 -9.2,15.2 -12.5,22.5l-0.3,-0.1c0.49,-8.5 0.59,-16.6 0.59,-27.79l0,-28.79l-8.18,0" id="path174"/>
    <path fill="none" stroke="#050301" stroke-width="5" stroke-miterlimit="4" d="m-1725.00004,3682.50013l-270,0" id="path176"/>
    <path fill="none" stroke="#050301" stroke-width="5" stroke-miterlimit="4" d="m-1635.00004,3592.50013l0,-270" id="path178"/>
    <path fill="none" stroke="#050301" stroke-width="5" stroke-miterlimit="4" d="m-1725.00004,9351.79013l-270,0" id="path180"/>
    <path fill="none" stroke="#050301" stroke-width="5" stroke-miterlimit="4" d="m-1635.00004,9441.79013l0,270" id="path182"/>
    <path fill="none" stroke="#050301" stroke-width="5" stroke-miterlimit="4" d="m4124.28996,9351.79013l270,0" id="path184"/>
    <path fill="none" stroke="#050301" stroke-width="5" stroke-miterlimit="4" d="m4034.28996,9441.79013l0,270" id="path186"/>
    <path fill="none" stroke="#050301" stroke-width="5" stroke-miterlimit="4" d="m4124.28996,3682.50013l270,0" id="path188"/>
    <path fill="none" stroke="#050301" stroke-width="5" stroke-miterlimit="4" d="m4034.28996,3592.50013l0,-270" id="path190"/>
   </g>
  </g>
 </g>
</svg>