<svg xmlns:dc="http://purl.org/dc/elements/1.1/" xmlns:cc="http://creativecommons.org/ns#" xmlns:rdf="http://www.w3.org/1999/02/22-rdf-syntax-ns#" xmlns:svg="http://www.w3.org/2000/svg" xmlns="http://www.w3.org/2000/svg" viewBox="0 0 851.90668 851.90668" height="851.90668" width="851.90668" xml:space="preserve" id="svg2" version="1.1"><metadata id="metadata8"><rdf:RDF><cc:Work rdf:about=""><dc:format>image/svg+xml</dc:format><dc:type rdf:resource="http://purl.org/dc/dcmitype/StillImage"/></cc:Work></rdf:RDF></metadata><defs id="defs6"><clipPath id="clipPath36" clipPathUnits="userSpaceOnUse"><path id="path34" d="m 2988.77,3736.09 c -20.47,-69.48 -90.57,-62.69 -90.57,-62.69 0,0 32.44,-236.86 292.62,-236.86 259.8,0 292.57,236.86 292.57,236.86 0,0 -74.2,-5.24 -90.57,62.69 z"/></clipPath></defs><g transform="matrix(1.3333333,0,0,-1.3333333,0,851.90667)" id="g10"><g transform="scale(0.1)" id="g12"><path id="path14" style="fill:#706d6e;fill-opacity:1;fill-rule:nonzero;stroke:none" d="m 2078.5,3251.34 c 0,-9.78 -7.94,-17.71 -17.71,-17.71 -9.79,0 -17.72,7.93 -17.72,17.71 0,9.78 7.93,17.71 17.72,17.71 9.77,0 17.71,-7.93 17.71,-17.71"/><path id="path16" style="fill:#706d6e;fill-opacity:1;fill-rule:nonzero;stroke:none" d="m 4346.22,3251.34 c 0,-9.78 -7.95,-17.71 -17.71,-17.71 -9.81,0 -17.72,7.93 -17.72,17.71 0,9.79 7.91,17.72 17.72,17.72 9.76,0 17.71,-7.93 17.71,-17.72"/><path id="path18" style="fill:#3877c5;fill-opacity:1;fill-rule:nonzero;stroke:none" d="m 3034.7,3873.51 c 0,-12.72 -10.05,-23.04 -22.43,-23.04 -12.39,0 -22.44,10.32 -22.44,23.04 0,12.73 10.05,23.05 22.44,23.05 12.38,0 22.43,-10.32 22.43,-23.05"/><path id="path20" style="fill:#3877c5;fill-opacity:1;fill-rule:nonzero;stroke:none" d="m 3391.75,3873.39 c 0,-12.72 -10.06,-23.04 -22.44,-23.04 -12.41,0 -22.44,10.32 -22.44,23.04 0,12.73 10.03,23.04 22.44,23.04 12.38,0 22.44,-10.31 22.44,-23.04"/><path id="path22" style="fill:#3877c5;fill-opacity:1;fill-rule:nonzero;stroke:none" d="m 3296.57,3908.45 c 0,-12.72 -10.04,-23.04 -22.44,-23.04 -12.38,0 -22.42,10.32 -22.42,23.04 0,12.72 10.04,23.04 22.42,23.04 12.4,0 22.44,-10.32 22.44,-23.04"/><path id="path24" style="fill:#3877c5;fill-opacity:1;fill-rule:nonzero;stroke:none" d="m 3128.31,3907.44 c 0,-12.72 -10.05,-23.03 -22.44,-23.03 -12.39,0 -22.44,10.31 -22.44,23.03 0,12.73 10.05,23.05 22.44,23.05 12.39,0 22.44,-10.32 22.44,-23.05"/><path id="path26" style="fill:#3877c5;fill-opacity:1;fill-rule:nonzero;stroke:none" d="m 3214.44,3917.46 c 0,-12.72 -10.04,-23.04 -22.43,-23.04 -12.39,0 -22.43,10.32 -22.43,23.04 0,12.73 10.04,23.04 22.43,23.04 12.39,0 22.43,-10.31 22.43,-23.04"/><path id="path28" style="fill:#3877c5;fill-opacity:1;fill-rule:nonzero;stroke:none" d="m 3323.33,3739.29 34.51,113.19 -60.1,-41.07 -28.04,74.13 -37.07,-68.13 -41.06,76.14 -36.06,-76.14 -45.08,67.12 -19.03,-73.12 -65.11,42.07 45.77,-114.19 h 251.27"/><g id="g30"><g clip-path="url(#clipPath36)" id="g32"><path id="path38" style="fill:#3877c5;fill-opacity:1;fill-rule:nonzero;stroke:none" d="m 3073.56,3592.73 -84.42,17.02 -44.75,77.73 84.45,-17.02 44.72,-77.73"/><path id="path40" style="fill:#3877c5;fill-opacity:1;fill-rule:nonzero;stroke:none" d="m 3113.1,3653.3 -84.45,17.02 -44.74,77.71 84.45,-17.01 44.74,-77.72"/><path id="path42" style="fill:#3877c5;fill-opacity:1;fill-rule:nonzero;stroke:none" d="m 3033.96,3532.19 -84.43,17.02 -44.74,77.73 84.45,-17.02 44.72,-77.73"/><path id="path44" style="fill:#3877c5;fill-opacity:1;fill-rule:nonzero;stroke:none" d="m 3153.33,3714.18 -84.41,17.01 -44.77,77.73 84.46,-16.99 44.72,-77.75"/><path id="path46" style="fill:#3877c5;fill-opacity:1;fill-rule:nonzero;stroke:none" d="m 3202.76,3498.1 -84.42,16.98 -44.75,77.75 84.45,-17.01 44.72,-77.72"/><path id="path48" style="fill:#3877c5;fill-opacity:1;fill-rule:nonzero;stroke:none" d="m 3242.29,3558.65 -84.43,17.01 -44.76,77.73 84.45,-17.01 44.74,-77.73"/><path id="path50" style="fill:#3877c5;fill-opacity:1;fill-rule:nonzero;stroke:none" d="m 3163.19,3437.55 -84.45,17 -44.76,77.74 84.45,-17 44.76,-77.74"/><path id="path52" style="fill:#3877c5;fill-opacity:1;fill-rule:nonzero;stroke:none" d="m 3282.51,3619.53 -84.39,17.01 -44.75,77.75 84.41,-17.02 44.73,-77.74"/><path id="path54" style="fill:#3877c5;fill-opacity:1;fill-rule:nonzero;stroke:none" d="m 3322.06,3680.09 -84.45,17 -44.74,77.76 84.44,-17.02 44.75,-77.74"/><path id="path56" style="fill:#3877c5;fill-opacity:1;fill-rule:nonzero;stroke:none" d="m 3371.79,3464.22 -84.42,17.02 -44.74,77.75 84.43,-17.02 44.73,-77.75"/><path id="path58" style="fill:#3877c5;fill-opacity:1;fill-rule:nonzero;stroke:none" d="m 3411.34,3524.78 -84.46,17.01 -44.74,77.73 84.43,-16.99 44.77,-77.75"/><path id="path60" style="fill:#3877c5;fill-opacity:1;fill-rule:nonzero;stroke:none" d="m 3292.69,3343.14 -84.42,17.01 -44.73,77.73 84.42,-17.02 44.73,-77.72"/><path id="path62" style="fill:#3877c5;fill-opacity:1;fill-rule:nonzero;stroke:none" d="m 3332.2,3403.7 -84.46,17 -44.7,77.74 84.43,-17.01 44.73,-77.73"/><path id="path64" style="fill:#3877c5;fill-opacity:1;fill-rule:nonzero;stroke:none" d="m 3451.57,3585.69 -84.43,17 -44.75,77.71 84.44,-16.97 44.74,-77.74"/><path id="path66" style="fill:#3877c5;fill-opacity:1;fill-rule:nonzero;stroke:none" d="m 3491.08,3646.23 -84.43,17.01 -44.75,77.73 84.44,-17 44.74,-77.74"/></g></g><path id="path68" style="fill:none;stroke:#3877c5;stroke-width:10;stroke-linecap:butt;stroke-linejoin:miter;stroke-miterlimit:4;stroke-dasharray:none;stroke-opacity:1" d="m 2988.77,3736.09 c -20.47,-69.48 -90.57,-62.69 -90.57,-62.69 0,0 32.44,-236.86 292.62,-236.86 259.8,0 292.57,236.86 292.57,236.86 0,0 -74.2,-5.24 -90.57,62.69 z"/><path id="path70" style="fill:#3877c5;fill-opacity:1;fill-rule:nonzero;stroke:none" d="m 2257.08,2753.42 v 82.33 l -53.94,20.45 v -80.76 z m -10.47,183.02 -29.36,21.49 -14.11,-19.39 v -58.73 z m 39.58,-20.46 33.76,-22.02 v -157.84 l -74.89,-66.61 -143.2,50.86 33.37,39.34 v 208.19 l -51.22,16.78 45.79,69.76 59.77,-25.18 4.65,-29.89 34.54,50.87 103.61,-60.32 -46.18,-73.94"/><path id="path72" style="fill:#3877c5;fill-opacity:1;fill-rule:nonzero;stroke:none" d="m 2436.76,2749.75 v 109.08 l -21.34,9.96 v -111.7 z m 81.88,-10.49 -38.81,-74.99 -33.37,36.71 -21.34,-31.99 -71.41,25.17 0.78,187.21 59.76,69.75 84.6,-25.7 1.55,-165.18 18.24,-20.98"/><path id="path74" style="fill:#3877c5;fill-opacity:1;fill-rule:nonzero;stroke:none" d="m 2580.34,2942.21 29.1,-26.75 -1.16,-157.84 23.67,-21.5 -37.26,-70.28 -41.13,33.56 -0.39,166.25 -19.79,16.77 40.36,63.46 -34.54,41.95 38.03,52.45 41.13,-51.93 -38.02,-46.14"/><path id="path76" style="fill:#3877c5;fill-opacity:1;fill-rule:nonzero;stroke:none" d="m 2787.56,2902.88 -39.5,-66.98 -13.67,12.9 v -90.16 l 53.17,-17.93 -47.74,-70.15 -65.58,19.4 v 164.67 l -32.59,17.31 39.19,80.76 38.81,-31.99 15.13,31.99 52.78,-49.82"/><path id="path78" style="fill:#3877c5;fill-opacity:1;fill-rule:nonzero;stroke:none" d="m 2846.93,2942.21 29.11,-26.75 -1.17,-157.84 23.67,-21.5 -37.25,-70.28 -41.13,33.56 -0.39,166.25 -19.79,16.77 40.36,63.46 -34.54,41.95 38.03,52.45 41.13,-51.93 -38.03,-46.14"/><path id="path80" style="fill:#3877c5;fill-opacity:1;fill-rule:nonzero;stroke:none" d="m 3020.4,2943.77 -37.26,25.71 1.16,-344.54 -49.67,-39.86 0.39,340.34 -14.75,8.92 15.91,31.99 0.78,28.84 33.37,60.3 71.41,-40.37 -21.34,-71.33"/><path id="path82" style="fill:#3877c5;fill-opacity:1;fill-rule:nonzero;stroke:none" d="m 3122.07,2846.76 -33.76,14.16 -1.17,-100.68 59.76,-22.03 -51.61,-69.75 -64.03,27.79 v 203.48 l 50.44,52.44 64.04,-40.9 -23.67,-64.51"/><path id="path84" style="fill:#3877c5;fill-opacity:1;fill-rule:nonzero;stroke:none" d="m 3254,2592.95 -1.14,274.79 -19.05,16.26 -1.15,-200.85 -60.92,-5.76 1.55,339.28 59.37,46.15 v -121.66 l 20.09,28.84 61.8,-40.38 1.54,-301.53 -62.09,-35.14"/><path id="path86" style="fill:#3877c5;fill-opacity:1;fill-rule:nonzero;stroke:none" d="m 3410,2816.35 19.02,34.61 -20.56,19.92 z m 83.05,-83.91 -45.02,-62.93 -91.58,20.98 -0.39,205.57 62.09,57.17 72.18,-66.61 -71.79,-132.67 74.51,-21.51"/><path id="path88" style="fill:#3877c5;fill-opacity:1;fill-rule:nonzero;stroke:none" d="m 3653.71,2902.88 -39.5,-66.98 -13.66,12.9 v -90.16 l 53.16,-17.93 -47.73,-70.15 -65.59,19.4 v 164.67 l -32.6,17.31 39.2,80.76 38.81,-31.99 15.13,31.99 52.78,-49.82"/><path id="path90" style="fill:#3877c5;fill-opacity:1;fill-rule:nonzero;stroke:none" d="m 3910.64,2956.89 -70.46,14.16 v -67.65 l 22.91,34.08 84.2,-34.08 1.17,-261.15 -65.59,-60.84 -1.95,258.01 -22.72,10.49 -18.02,-25.7 V 2677.9 h -62.86 l -4.27,305.21 57.05,76.03 134.26,-39.32 -53.72,-62.93"/><path id="path92" style="fill:#3877c5;fill-opacity:1;fill-rule:nonzero;stroke:none" d="m 4071.07,2759.71 v 92.3 l -16.03,17.31 -2.97,-91.25 z m -3.49,-90.72 -79.94,34.08 -0.76,172.54 57.81,75.51 86.93,-45.63 3.87,-173.05 -67.91,-63.45"/><path id="path94" style="fill:#3877c5;fill-opacity:1;fill-rule:nonzero;stroke:none" d="m 4244.16,2948.5 12.03,0.53 -12.81,32.51 z m 17.07,0 31.04,-1.06 -35.69,-82.85 -12.03,0.53 -1.56,-237.56 -59.38,-43.01 -0.78,282.66 -32.6,-2.62 23.31,82.85 9.68,1.59 3.5,41.42 45.8,63.46 57.81,-34.61 -29.1,-70.8"/><path id="path96" style="fill:#706d6e;fill-opacity:1;fill-rule:nonzero;stroke:none" d="m 3478.11,3258.43 h -566.93 l -822.03,-7.08 822.03,-7.09 h 566.93 l 822.05,7.09 -822.05,7.08"/><path id="path98" style="fill:#706d6e;fill-opacity:1;fill-rule:nonzero;stroke:none" d="m 2758.09,3348.62 v -28.18 h 32.58 v 28.18 h 8.8 v -67.36 h -8.8 v 31.58 h -32.58 v -31.58 h -8.79 v 67.36 h 8.79"/><path id="path100" style="fill:#706d6e;fill-opacity:1;fill-rule:nonzero;stroke:none" d="m 2821.6,3314.64 c 0,-14.49 7.79,-27.39 21.58,-27.39 13.8,0 21.59,12.7 21.59,27.99 0,13.49 -6.99,27.48 -21.48,27.48 -14.5,0 -21.69,-13.39 -21.69,-28.08 z m 52.37,1 c 0,-23.09 -14.09,-35.48 -31.28,-35.48 -17.9,0 -30.29,13.89 -30.29,34.28 0,21.39 13.2,35.38 31.18,35.38 18.5,0 30.39,-14.09 30.39,-34.18"/><path id="path102" style="fill:#706d6e;fill-opacity:1;fill-rule:nonzero;stroke:none" d="m 2897.29,3341.22 h -20.48 v 7.4 h 49.86 v -7.4 h -20.58 v -59.96 h -8.8 v 59.96"/><path id="path104" style="fill:#706d6e;fill-opacity:1;fill-rule:nonzero;stroke:none" d="m 2971.48,3312.84 h -26.09 v -24.29 h 29.19 v -7.29 h -37.98 v 67.36 h 36.48 v -7.29 h -27.69 v -21.29 h 26.09 v -7.2"/><path id="path106" style="fill:#706d6e;fill-opacity:1;fill-rule:nonzero;stroke:none" d="m 2988.3,3348.62 h 8.79 v -60.07 h 28.78 v -7.29 h -37.57 v 67.36"/><path id="path108" style="fill:#706d6e;fill-opacity:1;fill-rule:nonzero;stroke:none" d="m 3058.6,3307.44 c 0,3.7 2.49,6.3 5.99,6.3 3.5,0 5.9,-2.6 5.9,-6.3 0,-3.5 -2.4,-6.19 -6.1,-6.19 -3.39,0 -5.79,2.69 -5.79,6.19"/><path id="path110" style="fill:#706d6e;fill-opacity:1;fill-rule:nonzero;stroke:none" d="m 3155.67,3283.36 c -3.1,-1.6 -9.6,-3.2 -17.79,-3.2 -18.99,0 -33.18,11.99 -33.18,34.18 0,21.19 14.29,35.38 35.18,35.38 8.29,0 13.69,-1.8 15.99,-3 l -2.2,-7.09 c -3.2,1.59 -7.89,2.79 -13.49,2.79 -15.8,0 -26.29,-10.09 -26.29,-27.78 0,-16.59 9.5,-27.08 25.79,-27.08 5.39,0 10.79,1.1 14.29,2.79 l 1.7,-6.99"/><path id="path112" style="fill:#706d6e;fill-opacity:1;fill-rule:nonzero;stroke:none" d="m 3172.29,3314.64 c 0,-14.49 7.8,-27.39 21.59,-27.39 13.8,0 21.59,12.7 21.59,27.99 0,13.49 -6.99,27.48 -21.49,27.48 -14.49,0 -21.69,-13.39 -21.69,-28.08 z m 52.38,1 c 0,-23.09 -14.1,-35.48 -31.29,-35.48 -17.89,0 -30.28,13.89 -30.28,34.28 0,21.39 13.19,35.38 31.18,35.38 18.49,0 30.39,-14.09 30.39,-34.18"/><path id="path114" style="fill:#706d6e;fill-opacity:1;fill-rule:nonzero;stroke:none" d="m 3238.5,3281.26 v 67.36 h 9.59 l 21.48,-34.08 c 4.9,-7.9 8.91,-14.99 12,-21.89 l 0.31,0.1 c -0.81,9 -1.01,17.19 -1.01,27.69 v 28.18 h 8.19 v -67.36 h -8.79 l -21.38,34.18 c -4.71,7.49 -9.2,15.19 -12.5,22.49 l -0.3,-0.1 c 0.5,-8.5 0.6,-16.6 0.6,-27.79 v -28.78 h -8.19"/><path id="path116" style="fill:#706d6e;fill-opacity:1;fill-rule:nonzero;stroke:none" d="m 3315.49,3288.05 c 2.21,-0.3 5.4,-0.4 8.8,-0.4 18.68,0 28.68,10.4 28.68,28.59 0.1,15.89 -8.89,25.98 -27.29,25.98 -4.49,0 -7.89,-0.4 -10.19,-0.89 z m -8.69,59.57 c 5.29,0.9 11.59,1.5 18.49,1.5 12.48,0 21.39,-3 27.29,-8.39 6.09,-5.5 9.59,-13.3 9.59,-24.19 0,-11 -3.5,-19.99 -9.71,-26.19 -6.39,-6.29 -16.78,-9.69 -29.87,-9.69 -6.3,0 -11.4,0.3 -15.79,0.8 v 66.16"/><path id="path118" style="fill:#706d6e;fill-opacity:1;fill-rule:nonzero;stroke:none" d="m 3384.59,3348.62 v -67.36 h -8.79 v 67.36 h 8.79"/><path id="path120" style="fill:#706d6e;fill-opacity:1;fill-rule:nonzero;stroke:none" d="m 3415.08,3341.22 h -20.49 v 7.4 h 49.88 v -7.4 h -20.6 v -59.96 h -8.79 v 59.96"/><path id="path122" style="fill:#706d6e;fill-opacity:1;fill-rule:nonzero;stroke:none" d="m 3456.99,3314.64 c 0,-14.49 7.8,-27.39 21.58,-27.39 13.79,0 21.59,12.7 21.59,27.99 0,13.49 -7,27.48 -21.49,27.48 -14.49,0 -21.68,-13.39 -21.68,-28.08 z m 52.37,1 c 0,-23.09 -14.09,-35.48 -31.29,-35.48 -17.89,0 -30.28,13.89 -30.28,34.28 0,21.39 13.19,35.38 31.19,35.38 18.48,0 30.38,-14.09 30.38,-34.18"/><path id="path124" style="fill:#706d6e;fill-opacity:1;fill-rule:nonzero;stroke:none" d="m 3531.88,3317.04 h 8.9 c 9.3,0 15.2,5.1 15.2,12.79 0,8.7 -6.31,12.49 -15.51,12.49 -4.18,0 -7.09,-0.3 -8.59,-0.7 z m -8.7,30.68 c 4.4,0.8 10.8,1.4 16.7,1.4 9.3,0 15.39,-1.8 19.5,-5.49 3.28,-3.01 5.29,-7.6 5.29,-12.9 0,-8.79 -5.61,-14.69 -12.6,-17.09 v -0.3 c 5.1,-1.8 8.2,-6.59 9.81,-13.59 2.18,-9.4 3.78,-15.89 5.19,-18.49 h -9 c -1.1,1.99 -2.6,7.69 -4.4,16.09 -1.99,9.29 -5.7,12.79 -13.59,13.09 h -8.2 v -29.18 h -8.7 v 66.46"/><path id="path126" style="fill:#706d6e;fill-opacity:1;fill-rule:nonzero;stroke:none" d="m 3614.26,3312.84 h -26.08 v -24.29 h 29.18 v -7.29 h -37.97 v 67.36 h 36.47 v -7.29 h -27.68 v -21.29 h 26.08 v -7.2"/><path id="path128" style="fill:#706d6e;fill-opacity:1;fill-rule:nonzero;stroke:none" d="m 3639.88,3348.62 v -67.36 h -8.79 v 67.36 h 8.79"/><path id="path130" style="fill:#706d6e;fill-opacity:1;fill-rule:nonzero;stroke:none" d="m 2617.12,3143.36 c -3.1,-1.6 -9.59,-3.2 -17.79,-3.2 -18.99,0 -33.18,11.99 -33.18,34.18 0,21.19 14.29,35.38 35.18,35.38 8.3,0 13.69,-1.8 15.99,-3 l -2.19,-7.09 c -3.2,1.59 -7.9,2.79 -13.5,2.79 -15.79,0 -26.28,-10.09 -26.28,-27.78 0,-16.59 9.49,-27.08 25.78,-27.08 5.4,0 10.8,1.1 14.29,2.79 l 1.7,-6.99"/><path id="path132" style="fill:#706d6e;fill-opacity:1;fill-rule:nonzero;stroke:none" d="m 2664.13,3169.24 -6.7,19.4 c -1.5,4.39 -2.49,8.39 -3.49,12.29 h -0.2 c -1.01,-3.9 -2,-8.1 -3.4,-12.2 l -6.6,-19.49 z m -22.19,-6.8 -6.99,-21.19 h -9 l 22.99,67.37 h 10.39 l 22.99,-67.37 h -9.3 l -7.19,21.19 h -23.89"/><path id="path134" style="fill:#706d6e;fill-opacity:1;fill-rule:nonzero;stroke:none" d="m 2694.65,3208.62 h 36.28 v -7.29 h -27.49 v -22.39 h 25.39 v -7.2 h -25.39 v -30.49 h -8.79 v 67.37"/><path id="path136" style="fill:#706d6e;fill-opacity:1;fill-rule:nonzero;stroke:none" d="m 2779.13,3223.91 -12.79,-11.69 h -7.1 l 9.3,11.69 z m 1.6,-51.08 h -26.09 v -24.27 h 29.19 v -7.31 h -37.98 v 67.37 h 36.48 v -7.29 h -27.69 v -21.29 h 26.09 v -7.21"/><path id="path138" style="fill:#706d6e;fill-opacity:1;fill-rule:nonzero;stroke:none" d="m 2830.04,3177.03 h 8.9 c 9.3,0 15.19,5.1 15.19,12.8 0,8.7 -6.29,12.49 -15.49,12.49 -4.2,0 -7.1,-0.3 -8.6,-0.7 z m -8.69,30.69 c 4.4,0.8 10.79,1.4 16.69,1.4 9.3,0 15.39,-1.8 19.49,-5.49 3.3,-3.01 5.3,-7.6 5.3,-12.9 0,-8.79 -5.6,-14.69 -12.6,-17.09 v -0.3 c 5.1,-1.79 8.2,-6.6 9.8,-13.59 2.2,-9.4 3.8,-15.9 5.19,-18.5 h -8.99 c -1.1,2 -2.6,7.7 -4.39,16.1 -2.01,9.29 -5.7,12.79 -13.6,13.09 h -8.2 v -29.19 h -8.69 v 66.47"/><path id="path140" style="fill:#706d6e;fill-opacity:1;fill-rule:nonzero;stroke:none" d="m 2886.34,3208.62 v -67.37 h -8.79 v 67.37 h 8.79"/><path id="path142" style="fill:#706d6e;fill-opacity:1;fill-rule:nonzero;stroke:none" d="m 2938.83,3172.83 h -26.09 v -24.27 h 29.19 v -7.31 h -37.98 v 67.37 h 36.48 v -7.29 h -27.69 v -21.29 h 26.09 v -7.21"/><path id="path144" style="fill:#706d6e;fill-opacity:1;fill-rule:nonzero;stroke:none" d="m 2964.44,3148.05 c 2.21,-0.29 5.4,-0.39 8.8,-0.39 18.69,0 28.68,10.39 28.68,28.57 0.11,15.9 -8.89,25.99 -27.28,25.99 -4.5,0 -7.9,-0.4 -10.2,-0.89 z m -8.69,59.57 c 5.29,0.9 11.59,1.5 18.49,1.5 12.49,0 21.39,-3 27.28,-8.39 6.1,-5.5 9.6,-13.3 9.6,-24.19 0,-10.99 -3.5,-19.99 -9.69,-26.19 -6.4,-6.29 -16.8,-9.69 -29.89,-9.69 -6.3,0 -11.39,0.3 -15.79,0.8 v 66.16"/><path id="path146" style="fill:#706d6e;fill-opacity:1;fill-rule:nonzero;stroke:none" d="m 3059.63,3172.83 h -26.09 v -24.27 h 29.18 v -7.31 h -37.97 v 67.37 h 36.48 v -7.29 h -27.69 v -21.29 h 26.09 v -7.21"/><path id="path148" style="fill:#706d6e;fill-opacity:1;fill-rule:nonzero;stroke:none" d="m 3076.45,3208.62 h 8.79 v -60.06 h 28.78 v -7.31 h -37.57 v 67.37"/><path id="path150" style="fill:#706d6e;fill-opacity:1;fill-rule:nonzero;stroke:none" d="m 3123.05,3167.44 c 0,3.7 2.49,6.29 5.99,6.29 3.5,0 5.9,-2.59 5.9,-6.29 0,-3.49 -2.4,-6.19 -6.1,-6.19 -3.4,0 -5.79,2.7 -5.79,6.19"/><path id="path152" style="fill:#706d6e;fill-opacity:1;fill-rule:nonzero;stroke:none" d="m 3181.84,3177.03 h 8.89 c 9.3,0 15.19,5.1 15.19,12.8 0,8.7 -6.29,12.49 -15.49,12.49 -4.19,0 -7.1,-0.3 -8.59,-0.7 z m -8.7,30.69 c 4.4,0.8 10.8,1.4 16.69,1.4 9.3,0 15.39,-1.8 19.49,-5.49 3.3,-3.01 5.3,-7.6 5.3,-12.9 0,-8.79 -5.6,-14.69 -12.59,-17.09 v -0.3 c 5.1,-1.79 8.19,-6.6 9.79,-13.59 2.2,-9.4 3.81,-15.9 5.19,-18.5 h -8.98 c -1.11,2 -2.6,7.7 -4.4,16.1 -2.01,9.29 -5.7,12.79 -13.6,13.09 h -8.19 v -29.19 h -8.7 v 66.47"/><path id="path154" style="fill:#706d6e;fill-opacity:1;fill-rule:nonzero;stroke:none" d="m 3264.22,3172.83 h -26.09 v -24.27 h 29.19 v -7.31 h -37.98 v 67.37 h 36.48 v -7.29 h -27.69 v -21.29 h 26.09 v -7.21"/><path id="path156" style="fill:#706d6e;fill-opacity:1;fill-rule:nonzero;stroke:none" d="m 3280.04,3151.86 c 3.91,-2.5 9.49,-4.41 15.49,-4.41 8.9,0 14.1,4.7 14.1,11.5 0,6.19 -3.6,9.89 -12.7,13.29 -10.99,3.99 -17.79,9.79 -17.79,19.19 0,10.5 8.69,18.29 21.79,18.29 6.79,0 11.89,-1.6 14.79,-3.3 l -2.4,-7.1 c -2.09,1.3 -6.59,3.2 -12.69,3.2 -9.19,0 -12.7,-5.49 -12.7,-10.09 0,-6.29 4.1,-9.4 13.4,-12.99 11.39,-4.4 17.09,-9.9 17.09,-19.79 0,-10.4 -7.6,-19.49 -23.49,-19.49 -6.49,0 -13.58,1.99 -17.19,4.39 l 2.3,7.31"/><path id="path158" style="fill:#706d6e;fill-opacity:1;fill-rule:nonzero;stroke:none" d="m 3345.74,3201.22 h -20.49 v 7.4 h 49.87 v -7.4 h -20.59 v -59.97 h -8.79 v 59.97"/><path id="path160" style="fill:#706d6e;fill-opacity:1;fill-rule:nonzero;stroke:none" d="m 3410.72,3169.24 -6.7,19.4 c -1.5,4.39 -2.5,8.39 -3.49,12.29 h -0.2 c -0.99,-3.9 -2.01,-8.1 -3.4,-12.2 l -6.6,-19.49 z m -22.18,-6.8 -7,-21.19 h -9 l 22.99,67.37 h 10.39 l 22.99,-67.37 h -9.3 l -7.19,21.19 h -23.88"/><path id="path162" style="fill:#706d6e;fill-opacity:1;fill-rule:nonzero;stroke:none" d="m 3447.23,3208.62 v -39.98 c 0,-14.98 6.7,-21.39 15.7,-21.39 9.88,0 16.39,6.6 16.39,21.39 v 39.98 h 8.79 v -39.38 c 0,-20.68 -10.88,-29.08 -25.49,-29.08 -13.79,0 -24.18,7.79 -24.18,28.79 v 39.67 h 8.79"/><path id="path164" style="fill:#706d6e;fill-opacity:1;fill-rule:nonzero;stroke:none" d="m 3514.43,3177.03 h 8.89 c 9.3,0 15.2,5.1 15.2,12.8 0,8.7 -6.29,12.49 -15.49,12.49 -4.2,0 -7.09,-0.3 -8.6,-0.7 z m -8.69,30.69 c 4.4,0.8 10.78,1.4 16.68,1.4 9.3,0 15.39,-1.8 19.49,-5.49 3.3,-3.01 5.3,-7.6 5.3,-12.9 0,-8.79 -5.59,-14.69 -12.58,-17.09 v -0.3 c 5.08,-1.79 8.18,-6.6 9.78,-13.59 2.21,-9.4 3.79,-15.9 5.2,-18.5 h -8.98 c -1.12,2 -2.6,7.7 -4.42,16.1 -1.99,9.29 -5.68,12.79 -13.59,13.09 h -8.19 v -29.19 h -8.69 v 66.47"/><path id="path166" style="fill:#706d6e;fill-opacity:1;fill-rule:nonzero;stroke:none" d="m 3595.61,3169.24 -6.68,19.4 c -1.51,4.39 -2.5,8.39 -3.52,12.29 h -0.2 c -0.99,-3.9 -1.99,-8.1 -3.39,-12.2 l -6.59,-19.49 z m -22.19,-6.8 -6.99,-21.19 h -8.99 l 22.99,67.37 h 10.39 l 22.99,-67.37 h -9.3 l -7.21,21.19 h -23.88"/><path id="path168" style="fill:#706d6e;fill-opacity:1;fill-rule:nonzero;stroke:none" d="m 3631.33,3201.22 h -20.49 v 7.4 h 49.88 v -7.4 h -20.6 v -59.97 h -8.79 v 59.97"/><path id="path170" style="fill:#706d6e;fill-opacity:1;fill-rule:nonzero;stroke:none" d="m 3679.43,3208.62 v -67.37 h -8.79 v 67.37 h 8.79"/><path id="path172" style="fill:#706d6e;fill-opacity:1;fill-rule:nonzero;stroke:none" d="m 3702.32,3174.64 c 0,-14.49 7.8,-27.39 21.61,-27.39 13.78,0 21.58,12.69 21.58,27.99 0,13.49 -6.99,27.48 -21.49,27.48 -14.49,0 -21.7,-13.39 -21.7,-28.08 z m 52.39,1 c 0,-23.09 -14.1,-35.48 -31.29,-35.48 -17.89,0 -30.29,13.89 -30.29,34.28 0,21.39 13.2,35.38 31.19,35.38 18.49,0 30.39,-14.09 30.39,-34.18"/><path id="path174" style="fill:#706d6e;fill-opacity:1;fill-rule:nonzero;stroke:none" d="m 3768.54,3141.25 v 67.37 h 9.59 l 21.48,-34.09 c 4.9,-7.89 8.91,-14.98 11.99,-21.88 l 0.31,0.11 c -0.8,8.98 -1.01,17.18 -1.01,27.67 v 28.19 h 8.2 v -67.37 h -8.79 l -21.38,34.18 c -4.71,7.5 -9.2,15.2 -12.5,22.5 l -0.3,-0.1 c 0.49,-8.5 0.59,-16.6 0.59,-27.79 v -28.79 h -8.18"/><path id="path176" style="fill:none;stroke:#050301;stroke-width:5;stroke-linecap:butt;stroke-linejoin:miter;stroke-miterlimit:4;stroke-dasharray:none;stroke-opacity:1" d="M 270,360 H 0"/><path id="path178" style="fill:none;stroke:#050301;stroke-width:5;stroke-linecap:butt;stroke-linejoin:miter;stroke-miterlimit:4;stroke-dasharray:none;stroke-opacity:1" d="M 360,270 V 0"/><path id="path180" style="fill:none;stroke:#050301;stroke-width:5;stroke-linecap:butt;stroke-linejoin:miter;stroke-miterlimit:4;stroke-dasharray:none;stroke-opacity:1" d="M 270,6029.29 H 0"/><path id="path182" style="fill:none;stroke:#050301;stroke-width:5;stroke-linecap:butt;stroke-linejoin:miter;stroke-miterlimit:4;stroke-dasharray:none;stroke-opacity:1" d="m 360,6119.29 v 270"/><path id="path184" style="fill:none;stroke:#050301;stroke-width:5;stroke-linecap:butt;stroke-linejoin:miter;stroke-miterlimit:4;stroke-dasharray:none;stroke-opacity:1" d="m 6119.29,6029.29 h 270"/><path id="path186" style="fill:none;stroke:#050301;stroke-width:5;stroke-linecap:butt;stroke-linejoin:miter;stroke-miterlimit:4;stroke-dasharray:none;stroke-opacity:1" d="m 6029.29,6119.29 v 270"/><path id="path188" style="fill:none;stroke:#050301;stroke-width:5;stroke-linecap:butt;stroke-linejoin:miter;stroke-miterlimit:4;stroke-dasharray:none;stroke-opacity:1" d="m 6119.29,360 h 270"/><path id="path190" style="fill:none;stroke:#050301;stroke-width:5;stroke-linecap:butt;stroke-linejoin:miter;stroke-miterlimit:4;stroke-dasharray:none;stroke-opacity:1" d="M 6029.29,270 V 0"/></g></g></svg>